<?xml version="1.0" encoding="iso-8859-1"?>
<!-- Uploaded to: SVG Repo, www.svgrepo.com, Generator: SVG Repo Mixer Tools -->
<svg height="800px" width="800px" version="1.1" id="Layer_1" xmlns="http://www.w3.org/2000/svg" xmlns:xlink="http://www.w3.org/1999/xlink" 
	 viewBox="0 0 512.002 512.002" xml:space="preserve">
<circle style="fill:#D8DBBA;" cx="256.001" cy="256.001" r="256.001"/>
<path style="fill:#C6C9A3;" d="M486.01,368.491l-61.193-61.193l-31.686-4.961L167.278,157.016l-102.76,50.93L350.542,493.97
	C409.772,470.42,458.127,425.39,486.01,368.491z"/>
<g>
	<path style="fill:#4D4D4D;" d="M224.164,161.145l25.363,29.042l-66.808,39.673c-14.324,0.79-19.271-34.331-39.087-42.74
		c-8.204-3.475-0.027-3.761-0.027-13.452c0-8.954-2.29-10.712,2.276-16.096c20.688-24.381,66.494-23.345,78.296,3.571
		L224.164,161.145L224.164,161.145z"/>
	<path style="fill:#4D4D4D;" d="M283.475,212.538c71.836,73.908,88.941,81.962,150.078,115.803
		c30.215,11.489,4.961,15.891-16.231,11.421c-44.429-9.377-120.122-32.777-135.387-29.193
		c-23.182,10.385-56.028,1.867-79.755-22.528c-28.157-28.974-32.777-69.356-10.331-90.195
		c22.446-20.852,63.468-14.269,91.625,14.705L283.475,212.538L283.475,212.538z"/>
</g>
<path style="fill:#999999;" d="M83.939,187.04l-18.371,20.62l29.193-14.732l51.04-14.133l0.682-12.906
	c-0.968-0.654-4.02-1.963-2.74-5.125l-59.789,26.263L83.939,187.04z"/>
<path style="fill:#808080;" d="M64.518,207.946l30.228-15.006l51.04-14.133l2.685,9.827L96.6,199.51l-32.082,8.449V207.946z"/>
<path style="fill:#FF873D;" d="M282.167,328.15c0,0,2.344,4.565,2.344,7.223c0,0.777-0.137,1.09-1.853,1.99l-15.36,5.233
	c6.555,6.733,4.157,10.358,0.137,13.615c0.423-6.623-2.276-7.005-5.411-8.981c-1.158,2.317-2.371,3.121-1.608,9.771
	s6.364,10.876,6.364,10.876s-5.479,2.808-10.562-2.29c-5.083-5.083-2.808-12.102-2.808-12.102
	c-8.082,12.484-1.54,13.178,2.576,18.235c-15.074,1.376-15.223-14.91-10.807-18.589c-4.852,5.629-6.161,12.02-0.464,18.672
	c-9.295,1.254-11.748-8.463-6.378-18.317c4.238-7.55,24.831-16.218,33.976-18.916l-2.126-3.707
	c0.736-4.062,4.361-5.342,12.007-2.725L282.167,328.15z"/>
<path style="fill:#4D4D4D;" d="M268.689,298.644l0.34,0.64l13.41,25.567c0,0,1.295,2.984,0.763,4.048
	c-0.532,1.063-4.265-0.75-7.605,0.804c-3.339,1.554-4.524,3.666-4.524,3.666s-2.562-0.545-2.657-2.657s-24.504-25.813-24.79-24.804
	c-0.273,1.009,25.049-7.251,25.049-7.251L268.689,298.644z"/>
<path style="fill:#FFFFFF;" d="M162.263,161.213c4.238,0,7.686,3.434,7.686,7.686c0,4.238-3.434,7.686-7.686,7.686
	c-4.238,0-7.686-3.434-7.686-7.686C154.576,164.661,158.01,161.213,162.263,161.213z"/>
<path style="fill:#333333;" d="M160.981,165.26c2.14,0,3.857,1.731,3.857,3.857s-1.731,3.857-3.857,3.857s-3.857-1.731-3.857-3.857
	S158.856,165.26,160.981,165.26z"/>
<path style="fill:#666666;" d="M245.765,192.409c-31.1,12.743-28.198,53.438-7.891,68.838
	c62.583,47.469,186.944,46.037,186.944,46.037c-105.39-55.618-147.952-127.632-179.053-114.889V192.409z"/>
<path style="fill:#FF873D;" d="M318.473,328.15c0,0,2.344,4.565,2.344,7.223c0,0.777-0.122,1.09-1.853,1.99l-15.346,5.233
	c6.555,6.733,4.157,10.358,0.137,13.615c0.423-6.623-2.276-7.005-5.411-8.981c-1.158,2.317-2.371,3.121-1.608,9.771
	c0.763,6.65,6.364,10.876,6.364,10.876s-5.479,2.808-10.563-2.29c-5.083-5.083-2.808-12.102-2.808-12.102
	c-8.082,12.484-1.54,13.178,2.576,18.235c-15.074,1.376-15.223-14.91-10.807-18.589c-4.852,5.629-6.161,12.02-0.464,18.672
	c-9.295,1.254-11.748-8.463-6.378-18.317c4.238-7.55,24.831-16.218,33.976-18.916l-2.126-3.707c0.75-4.062,4.361-5.342,12.007-2.725
	L318.473,328.15z"/>
<path style="fill:#4D4D4D;" d="M305.009,298.644l0.34,0.64l13.424,25.567c0,0,1.295,2.984,0.763,4.048
	c-0.532,1.063-4.265-0.75-7.605,0.804c-3.339,1.554-4.524,3.666-4.524,3.666s-2.562-0.545-2.657-2.657s-24.504-25.813-24.79-24.804
	c-0.286,1.009,25.049-7.251,25.049-7.251V298.644z"/>
</svg>